<?xml version="1.0" encoding="UTF-8" standalone="no"?>
<!-- Created with Inkscape (http://www.inkscape.org/) -->

<svg
   xmlns:dc="http://purl.org/dc/elements/1.1/"
   xmlns:cc="http://creativecommons.org/ns#"
   xmlns:rdf="http://www.w3.org/1999/02/22-rdf-syntax-ns#"
   xmlns:svg="http://www.w3.org/2000/svg"
   xmlns="http://www.w3.org/2000/svg"
   xmlns:sodipodi="http://sodipodi.sourceforge.net/DTD/sodipodi-0.dtd"
   xmlns:inkscape="http://www.inkscape.org/namespaces/inkscape"
   width="33.94323mm"
   height="33.94323mm"
   viewBox="0 0 33.94323 33.94323"
   version="1.1"
   id="svg1227"
   inkscape:version="0.92.2 (5c3e80d, 2017-08-06)"
   sodipodi:docname="Crealp_logo.svg">
  <defs
     id="defs1221" />
  <sodipodi:namedview
     id="base"
     pagecolor="#ffffff"
     bordercolor="#666666"
     borderopacity="1.0"
     inkscape:pageopacity="0.0"
     inkscape:pageshadow="2"
     inkscape:zoom="0.49497475"
     inkscape:cx="-11.170594"
     inkscape:cy="-424.81031"
     inkscape:document-units="mm"
     inkscape:current-layer="layer1"
     showgrid="false"
     fit-margin-top="0"
     fit-margin-left="0"
     fit-margin-right="0"
     fit-margin-bottom="0"
     inkscape:window-width="1920"
     inkscape:window-height="1017"
     inkscape:window-x="-8"
     inkscape:window-y="-8"
     inkscape:window-maximized="1" />
  <metadata
     id="metadata1224">
    <rdf:RDF>
      <cc:Work
         rdf:about="">
        <dc:format>image/svg+xml</dc:format>
        <dc:type
           rdf:resource="http://purl.org/dc/dcmitype/StillImage" />
        <dc:title></dc:title>
      </cc:Work>
    </rdf:RDF>
  </metadata>
  <g
     inkscape:label="Layer 1"
     inkscape:groupmode="layer"
     id="layer1"
     transform="translate(174.25809,88.726456)">
    <rect
       style="opacity:1;fill:#ffffff;fill-opacity:1;stroke:none;stroke-width:0.15875001;stroke-linecap:round;stroke-linejoin:bevel;stroke-miterlimit:4;stroke-dasharray:none;stroke-opacity:1;paint-order:fill markers stroke"
       id="rect1778"
       width="33.94323"
       height="33.94323"
       x="-174.25809"
       y="-88.726456" />
    <g
       style="stroke-width:0.35042316"
       transform="matrix(0.25288488,0,0,0.26948632,-179.21748,-56.536771)"
       id="g4146">
      <path
         inkscape:connector-curvature="0"
         id="path4142"
         d="m 102.62458,-48.046592 c -0.2475,-0.08293 -0.54918,-0.299298 -0.67041,-0.480807 -0.12122,-0.18151 -0.22247,-4.082971 -0.225,-8.669915 -0.005,-9.546308 0.0108,-9.621134 2.31223,-10.754378 2.05268,-1.010774 5.91369,-1.010774 7.96637,0 2.12928,1.048495 2.31681,1.612584 2.31681,6.968955 v 4.554475 l -1.0361,0.977166 c -0.65912,0.621632 -1.59958,1.112345 -2.58482,1.3487 -1.5082,0.361811 -4.68858,0.275334 -5.75408,-0.156458 -0.476,-0.192897 -0.525,0.03009 -0.525,2.389064 0,3.244544 -0.48059,4.26532 -1.8,3.823198 z m 8.025,-9.057536 0.975,-0.594469 v -3.608819 -3.608819 l -0.975,-0.594469 c -1.32874,-0.810148 -3.92579,-0.807378 -5.25922,0.0056 l -0.98423,0.600078 0.0842,3.6738 0.0842,3.6738 1.05,0.524534 c 1.42971,0.71422 3.79167,0.680731 5.025,-0.07125 z m -80.325007,3.092192 c -1.7007,-0.593927 -3.07685,-1.473895 -3.45818,-2.211306 -0.62779,-1.214004 -0.62779,-8.954344 0,-10.168348 0.97007,-1.875913 5.24462,-2.917163 8.75268,-2.132093 l 1.6055,0.359297 v 1.363474 c 0,1.273355 -0.0446,1.350228 -0.675,1.163062 -0.37125,-0.110227 -1.755,-0.270233 -3.075,-0.355568 -2.07043,-0.13385 -2.53388,-0.07054 -3.375,0.461014 l -0.975,0.616169 v 3.608819 3.608819 l 0.975,0.613915 c 0.83487,0.525679 1.31995,0.593412 3.375,0.471261 1.32,-0.07846 2.70375,-0.237451 3.075,-0.353314 0.63118,-0.196983 0.675,-0.123054 0.675,1.138715 0,1.346326 -0.003,1.350133 -1.33284,1.68499 -1.34925,0.339744 -4.74099,0.419613 -5.56716,0.131094 z m 12.6,-5.905213 v -6.144232 l 0.77252,-0.918081 c 2.33623,-2.77645 10.9397,-2.253554 9.427,0.572948 -0.29529,0.551762 -0.52308,0.585532 -2.78555,0.412951 -1.89124,-0.144264 -2.72391,-0.07895 -3.58228,0.280996 l -1.11831,0.468948 -0.0817,5.643101 -0.0817,5.643102 -1.275,0.09225 -1.275,0.09225 v -6.144232 z m 16.45606,5.638816 c -0.87265,-0.268647 -1.74213,-0.82569 -2.325,-1.489544 l -0.93106,-1.060417 v -4.479122 -4.479122 l 0.92824,-1.057202 c 1.68649,-1.920804 5.64702,-2.525736 8.80368,-1.344676 2.54253,0.951281 2.86808,1.549642 2.86808,5.271458 v 3.109542 h -4.95 -4.95 v 1.043084 c 0,0.791463 0.18759,1.165996 0.77764,1.55261 1.0453,0.684906 3.65235,0.864814 5.8313,0.402409 2.07431,-0.440199 2.78234,-0.123696 2.63123,1.176218 -0.0738,0.634694 -0.3628,0.868714 -1.59017,1.287548 -1.82951,0.624314 -5.18114,0.656071 -7.09394,0.06721 z m 6.64394,-9.583492 c 0,-1.55653 -1.31587,-2.313733 -3.78057,-2.175489 -2.40699,0.135007 -3.41943,0.782485 -3.41943,2.186814 v 1.043084 h 3.6 3.6 z m 11.074631,9.588905 c -0.756459,-0.233042 -1.735211,-0.757193 -2.175001,-1.164779 -0.71857,-0.665945 -0.79963,-0.952695 -0.79963,-2.828724 0,-1.938865 0.0625,-2.140219 0.87646,-2.825142 0.629818,-0.52996 2.027611,-1.009313 4.967347,-1.703481 3.779079,-0.892363 4.083861,-1.015402 3.99855,-1.614182 -0.21486,-1.508041 -3.428136,-2.103973 -6.917352,-1.282886 l -1.725005,0.405929 v -1.300061 c 0,-1.660285 0.493358,-1.94348 3.738425,-2.145933 3.248889,-0.202691 5.436795,0.411751 6.736284,1.891788 l 0.938403,1.068781 -0.08155,5.607097 -0.08155,5.607097 -1.65,0.346072 c -2.278107,0.477812 -6.174027,0.447156 -7.825381,-0.06158 z m 6.781902,-2.591023 c 0.09488,-0.09488 0.132222,-1.043092 0.08299,-2.107143 l -0.08952,-1.934639 -3.45,0.782868 -3.45,0.782868 -0.0913,1.085854 c -0.07991,0.950429 0.01362,1.12628 0.75,1.409982 0.839427,0.323406 5.920722,0.307311 6.24783,-0.01979 z m 9.443472,-7.08949 c 0,-11.057409 0.01281,-11.141696 1.632963,-10.735066 0.54099,0.13578 0.78792,0.448202 0.915648,1.158501 0.09619,0.53492 0.135855,5.157582 0.08814,10.272582 l -0.08675,9.3 -1.275,0.09225 -1.275,0.09225 z"
         style="fill:#a42b1b;stroke-width:0.35042316"
         sodipodi:nodetypes="cccssscsssscccccsscccsccsssscsssscccssssssccsssscccccccsscccssscccssscssssscccsssssssscssscccsssscccssssssscccs" />
      <path
         inkscape:connector-curvature="0"
         id="path4140"
         d="m 76.006002,-37.805111 c 2.357277,-2.136258 2.83233,-2.71647 6.809472,-8.316798 l 3.035943,-4.275 h 1.456059 1.456062 l -0.676041,0.975 c -4.07451,5.876337 -7.576203,10.560231 -8.85909,11.85 -1.547517,1.555818 -1.58883,1.575 -3.392139,1.575 h -1.825545 z m 12.416679,1.683561 c 0,-0.237723 4.277199,-8.140869 6.061659,-11.200359 l 1.793505,-3.075 h 1.48683 1.48683 l -0.865218,1.275 c -1.070949,1.578173 -4.708098,8.024529 -6.178185,10.95 l -1.092963,2.175 H 89.76891 c -0.740427,0 -1.346229,-0.05609 -1.346229,-0.124641 z m 14.399999,-0.02406 c 0,-0.202524 9.48388,-12.393858 10.44458,-13.426287 0.65439,-0.703257 1.0066,-0.825 2.38672,-0.825 h 1.61904 l -1.61619,1.785946 c -0.8889,0.98227 -3.49897,4.22126 -5.80017,7.197758 l -4.18398,5.411799 -1.425,0.0021 c -0.78375,0.0012 -1.425,-0.06468 -1.425,-0.146472 z m 18.9,-0.0058 c 0,-0.103062 0.38067,-0.75171 0.84594,-1.441437 0.46526,-0.68973 2.38226,-3.799899 4.25998,-6.911487 1.87772,-3.111588 3.57536,-5.719333 3.77251,-5.79499 0.19716,-0.07566 0.84466,-0.09481 1.4389,-0.04257 l 1.08042,0.09497 -4.27387,7.05 -4.27388,7.05 -1.425,0.09144 c -0.78375,0.05029 -1.425,0.0071 -1.425,-0.09595 z m 13.39617,-0.970499 c 0.25606,-0.61875 1.21681,-2.597919 2.13499,-4.398153 1.41187,-2.768181 2.09265,-3.705416 4.4127,-6.075 l 2.74328,-2.801847 h 2.02622 2.02623 l -2.56398,2.113098 c -3.42368,2.821615 -5.03886,4.873356 -7.01567,8.911902 l -1.65201,3.375 h -1.28866 -1.28866 z m -93.796169,-0.285615 v -1.198983 l 3.075,-0.174708 c 6.198004,-0.352143 14.674263,-2.181024 18.400803,-3.970251 1.630623,-0.782913 2.937537,-1.79583 5.610594,-4.348455 l 3.484794,-3.32779 1.735635,0.0904 1.735635,0.0904 -4.646229,4.294822 c -3.620772,3.346922 -5.116812,4.522262 -6.778368,5.325317 -3.854166,1.862775 -12.708196,3.777555 -19.497179,4.216473 l -3.120685,0.201758 z"
         style="fill:#581b0c;stroke-width:0.35042316" />
    </g>
  </g>
</svg>
