<?xml version="1.0" encoding="UTF-8" standalone="no"?>
<!-- Created with Inkscape (http://www.inkscape.org/) -->

<svg
   xmlns:dc="http://purl.org/dc/elements/1.1/"
   xmlns:cc="http://creativecommons.org/ns#"
   xmlns:rdf="http://www.w3.org/1999/02/22-rdf-syntax-ns#"
   xmlns:svg="http://www.w3.org/2000/svg"
   xmlns="http://www.w3.org/2000/svg"
   xmlns:sodipodi="http://sodipodi.sourceforge.net/DTD/sodipodi-0.dtd"
   xmlns:inkscape="http://www.inkscape.org/namespaces/inkscape"
   width="59.484589mm"
   height="19.007549mm"
   viewBox="0 0 59.484589 19.007549"
   version="1.1"
   id="svg942"
   inkscape:version="0.92.2 (5c3e80d, 2017-08-06)"
   sodipodi:docname="WaterPi_blue.svg">
  <defs
     id="defs936" />
  <sodipodi:namedview
     id="base"
     pagecolor="#ffffff"
     bordercolor="#666666"
     borderopacity="1.0"
     inkscape:pageopacity="0.0"
     inkscape:pageshadow="2"
     inkscape:zoom="0.35"
     inkscape:cx="-494.73103"
     inkscape:cy="-41.223072"
     inkscape:document-units="mm"
     inkscape:current-layer="layer1"
     showgrid="false"
     fit-margin-top="0"
     fit-margin-left="0"
     fit-margin-right="0"
     fit-margin-bottom="0"
     inkscape:window-width="1920"
     inkscape:window-height="1017"
     inkscape:window-x="-8"
     inkscape:window-y="-8"
     inkscape:window-maximized="1" />
  <metadata
     id="metadata939">
    <rdf:RDF>
      <cc:Work
         rdf:about="">
        <dc:format>image/svg+xml</dc:format>
        <dc:type
           rdf:resource="http://purl.org/dc/dcmitype/StillImage" />
        <dc:title></dc:title>
      </cc:Work>
    </rdf:RDF>
  </metadata>
  <g
     inkscape:label="Layer 1"
     inkscape:groupmode="layer"
     id="layer1"
     transform="translate(-107.84104,-118.91885)">
    <g
       transform="matrix(0.35277777,0,0,-0.35277777,26.223371,264.67458)"
       id="g4792"
       inkscape:export-xdpi="661.47388"
       inkscape:export-ydpi="661.47388">
      <g
         transform="translate(357.8125,373.9912)"
         id="g40">
        <path
           inkscape:connector-curvature="0"
           id="path42"
           style="fill:#0cc7d3;fill-opacity:1;fill-rule:nonzero;stroke:none"
           d="M 0,0 C 0,1.524 -0.342,2.744 -1.025,3.66 -1.71,4.577 -2.726,5.035 -4.072,5.035 -4.515,5.035 -4.923,5.018 -5.299,4.985 -5.675,4.951 -5.983,4.912 -6.226,4.869 V -4.04 c 0.309,-0.199 0.713,-0.364 1.209,-0.497 0.497,-0.133 0.998,-0.198 1.506,-0.198 C -1.17,-4.735 0,-3.157 0,0 M 5.035,0.132 C 5.035,-1.214 4.869,-2.439 4.538,-3.543 4.208,-4.647 3.721,-5.597 3.081,-6.392 2.44,-7.187 1.646,-7.806 0.697,-8.246 c -0.95,-0.442 -2.043,-0.663 -3.279,-0.663 -0.686,0 -1.326,0.066 -1.922,0.199 -0.596,0.132 -1.171,0.319 -1.722,0.563 v -6.558 h -4.935 V 8.248 c 0.442,0.132 0.95,0.259 1.524,0.38 0.574,0.121 1.175,0.226 1.805,0.315 0.629,0.087 1.27,0.16 1.922,0.214 0.65,0.056 1.274,0.084 1.87,0.084 1.436,0 2.716,-0.216 3.842,-0.645 C 0.929,8.164 1.878,7.557 2.651,6.773 3.423,5.989 4.014,5.035 4.422,3.908 4.83,2.783 5.035,1.524 5.035,0.132" />
      </g>
      <g
         id="g4771">
        <g
           id="g20"
           transform="translate(272.3545,382.5371)">
          <path
             d="m 0,0 c 0.198,-1.104 0.457,-2.279 0.775,-3.527 0.319,-1.246 0.671,-2.516 1.055,-3.807 0.385,-1.291 0.794,-2.567 1.225,-3.826 0.431,-1.259 0.869,-2.441 1.313,-3.546 0.376,0.839 0.775,1.858 1.195,3.06 0.422,1.203 0.842,2.471 1.264,3.806 0.421,1.334 0.814,2.681 1.179,4.042 0.366,1.36 0.67,2.625 0.914,3.798 h 2.121 C 10.243,-3.364 9.374,-6.436 8.432,-9.214 7.49,-11.994 6.454,-14.631 5.324,-17.124 H 3.329 c -0.336,0.781 -0.686,1.65 -1.053,2.609 -0.368,0.96 -0.747,1.987 -1.136,3.078 -0.388,1.092 -0.765,2.239 -1.129,3.441 -0.364,1.202 -0.712,2.433 -1.042,3.69 -0.33,-1.261 -0.677,-2.493 -1.039,-3.698 -0.363,-1.205 -0.739,-2.354 -1.125,-3.447 -0.388,-1.093 -0.764,-2.118 -1.13,-3.079 -0.365,-0.96 -0.713,-1.825 -1.042,-2.594 h -2.07 c -1.133,2.493 -2.168,5.133 -3.105,7.914 -0.939,2.782 -1.803,5.852 -2.595,9.21 h 2.285 c 0.245,-1.17 0.549,-2.435 0.915,-3.791 0.366,-1.358 0.759,-2.705 1.181,-4.04 0.421,-1.335 0.848,-2.599 1.279,-3.793 0.431,-1.192 0.835,-2.21 1.213,-3.048 0.422,1.098 0.847,2.278 1.271,3.539 0.424,1.261 0.823,2.532 1.197,3.813 0.373,1.281 0.725,2.545 1.053,3.795 0.329,1.247 0.626,2.422 0.887,3.525 z"
             style="fill:#0cc7d3;fill-opacity:1;fill-rule:nonzero;stroke:none"
             id="path22"
             inkscape:connector-curvature="0" />
        </g>
        <g
           id="g24"
           transform="translate(292.3696,366.9697)">
          <path
             d="M 0,0 C 0.839,0 1.574,0.027 2.204,0.084 2.833,0.138 3.368,0.211 3.81,0.298 V 6.326 C 3.566,6.437 3.181,6.553 2.651,6.674 2.12,6.795 1.392,6.855 0.463,6.855 -0.066,6.855 -0.617,6.818 -1.191,6.74 -1.767,6.663 -2.296,6.497 -2.782,6.244 -3.268,5.989 -3.664,5.642 -3.974,5.201 -4.283,4.759 -4.438,4.174 -4.438,3.445 c 0,-0.64 0.105,-1.182 0.315,-1.623 C -3.914,1.38 -3.616,1.027 -3.229,0.762 -2.842,0.498 -2.378,0.304 -1.838,0.183 -1.296,0.061 -0.685,0 0,0 m -0.198,15.965 c 1.127,0 2.081,-0.16 2.865,-0.482 C 3.45,15.164 4.084,14.722 4.571,14.159 5.056,13.597 5.41,12.929 5.63,12.155 5.852,11.383 5.962,10.543 5.962,9.639 V -1.158 C 5.741,-1.225 5.42,-1.298 5.001,-1.374 4.582,-1.451 4.096,-1.534 3.544,-1.622 2.992,-1.71 2.38,-1.782 1.706,-1.838 1.032,-1.894 0.342,-1.92 -0.364,-1.92 c -0.906,0 -1.739,0.099 -2.5,0.298 -0.762,0.198 -1.424,0.514 -1.988,0.943 -0.563,0.431 -1.005,0.983 -1.324,1.657 -0.321,0.673 -0.48,1.496 -0.48,2.467 0,0.927 0.177,1.722 0.53,2.384 0.353,0.663 0.849,1.209 1.49,1.64 0.64,0.43 1.402,0.745 2.286,0.943 0.882,0.2 1.842,0.3 2.881,0.3 0.308,0 0.634,-0.018 0.977,-0.05 C 1.849,8.628 2.181,8.584 2.501,8.528 2.821,8.473 3.097,8.418 3.329,8.364 3.561,8.308 3.721,8.259 3.81,8.214 v 1.059 c 0,0.597 -0.045,1.177 -0.134,1.741 -0.087,0.561 -0.281,1.069 -0.579,1.522 -0.298,0.453 -0.717,0.817 -1.259,1.093 -0.54,0.276 -1.253,0.414 -2.136,0.414 -1.259,0 -2.197,-0.088 -2.815,-0.265 -0.618,-0.177 -1.072,-0.32 -1.357,-0.43 l -0.3,1.887 c 0.376,0.177 0.956,0.343 1.741,0.497 0.782,0.155 1.727,0.233 2.831,0.233"
             style="fill:#0cc7d3;fill-opacity:1;fill-rule:nonzero;stroke:none"
             id="path26"
             inkscape:connector-curvature="0" />
        </g>
        <g
           id="g28"
           transform="translate(305.8501,382.5371)">
          <path
             d="M 0,0 H 6.822 V -1.822 H 0 v -9.108 c 0,-0.971 0.082,-1.761 0.248,-2.368 0.166,-0.607 0.403,-1.076 0.711,-1.408 0.311,-0.331 0.685,-0.553 1.127,-0.661 0.442,-0.112 0.927,-0.166 1.457,-0.166 0.906,0 1.634,0.103 2.186,0.313 0.553,0.211 0.982,0.404 1.292,0.58 l 0.53,-1.788 c -0.31,-0.198 -0.85,-0.426 -1.623,-0.679 -0.773,-0.253 -1.611,-0.38 -2.517,-0.38 -1.059,0 -1.949,0.137 -2.666,0.414 -0.718,0.275 -1.292,0.695 -1.722,1.258 -0.431,0.563 -0.734,1.263 -0.911,2.102 -0.176,0.84 -0.265,1.833 -0.265,2.982 V 5.033 L 0,5.431 Z"
             style="fill:#0cc7d3;fill-opacity:1;fill-rule:nonzero;stroke:none"
             id="path30"
             inkscape:connector-curvature="0" />
        </g>
        <g
           id="g32"
           transform="translate(327.7754,375.3496)">
          <path
             d="M 0,0 C -0.045,1.788 -0.464,3.18 -1.259,4.173 -2.054,5.167 -3.18,5.663 -4.638,5.663 -5.41,5.663 -6.1,5.508 -6.708,5.199 -7.314,4.891 -7.845,4.476 -8.297,3.958 -8.749,3.438 -9.103,2.837 -9.357,2.152 -9.61,1.468 -9.76,0.751 -9.803,0 Z m -12.154,-1.358 c 0,1.501 0.214,2.809 0.645,3.924 0.43,1.116 0.993,2.048 1.689,2.799 0.695,0.751 1.49,1.309 2.384,1.672 0.894,0.365 1.816,0.548 2.766,0.548 2.097,0 3.77,-0.685 5.018,-2.054 C 1.596,4.162 2.22,2.054 2.22,-0.795 2.22,-0.972 2.213,-1.148 2.202,-1.324 2.191,-1.503 2.175,-1.667 2.153,-1.822 H -9.87 c 0.067,-2.098 0.585,-3.708 1.556,-4.835 0.971,-1.127 2.517,-1.689 4.637,-1.689 1.17,0 2.097,0.11 2.783,0.33 0.683,0.221 1.181,0.409 1.49,0.564 l 0.397,-1.855 c -0.308,-0.176 -0.889,-0.386 -1.738,-0.63 -0.851,-0.242 -1.85,-0.363 -2.998,-0.363 -1.501,0 -2.781,0.221 -3.842,0.661 -1.06,0.443 -1.933,1.062 -2.616,1.855 -0.685,0.796 -1.182,1.74 -1.49,2.833 -0.31,1.093 -0.463,2.29 -0.463,3.593"
             style="fill:#0cc7d3;fill-opacity:1;fill-rule:nonzero;stroke:none"
             id="path34"
             inkscape:connector-curvature="0" />
        </g>
        <g
           id="g36"
           transform="translate(340.625,382.8682)">
          <path
             d="M 0,0 C 0.706,0 1.374,-0.057 2.004,-0.166 2.633,-0.277 3.068,-0.387 3.313,-0.497 L 2.881,-2.352 c -0.176,0.088 -0.535,0.182 -1.076,0.282 -0.541,0.098 -1.254,0.148 -2.137,0.148 -0.927,0 -1.672,-0.065 -2.235,-0.198 -0.564,-0.133 -0.933,-0.243 -1.11,-0.331 v -15.004 h -2.152 v 16.328 c 0.552,0.243 1.313,0.491 2.285,0.746 C -2.573,-0.128 -1.391,0 0,0"
             style="fill:#0cc7d3;fill-opacity:1;fill-rule:nonzero;stroke:none"
             id="path38"
             inkscape:connector-curvature="0" />
        </g>
        <path
           d="m 371.591,365.413 h -4.935 v 17.422 h 4.935 z m 0.464,22.456 c 0,-0.905 -0.292,-1.618 -0.877,-2.137 -0.585,-0.519 -1.276,-0.778 -2.071,-0.778 -0.795,0 -1.485,0.259 -2.07,0.778 -0.585,0.519 -0.877,1.232 -0.877,2.137 0,0.904 0.292,1.617 0.877,2.137 0.585,0.517 1.275,0.777 2.07,0.777 0.795,0 1.486,-0.26 2.071,-0.777 0.585,-0.52 0.877,-1.233 0.877,-2.137"
           style="fill:#0cc7d3;fill-opacity:1;fill-rule:nonzero;stroke:none"
           id="path44"
           inkscape:connector-curvature="0" />
        <g
           id="g4713">
          <g
             transform="translate(232.2007,376.4893)"
             id="g46">
            <path
               inkscape:connector-curvature="0"
               id="path48"
               style="fill:#0cc7d3;fill-opacity:1;fill-rule:nonzero;stroke:none"
               d="m 0,0 c 0.75,1.252 1.305,1.945 1.98,2.814 0.649,0.812 1.318,1.583 2.005,2.323 1.381,1.477 2.831,2.836 4.34,4.105 3.019,2.533 6.265,4.693 9.635,6.544 6.759,3.695 14.008,6.122 21.32,7.634 14.632,3.08 29.618,2.329 43.759,0.573 14.216,-1.45 28.419,-3.066 42.627,-3.706 7.092,-0.27 14.219,-0.275 21.21,0.859 6.996,1.088 13.741,3.689 19.864,7.385 -5.878,-4.061 -12.537,-7.129 -19.611,-8.677 -7.059,-1.598 -14.307,-2.038 -21.489,-2.205 -14.387,-0.236 -28.696,0.51 -42.992,1.082 -7.197,0.337 -14.15,0.665 -21.123,0.208 C 54.578,18.517 47.701,17.517 41.109,15.722 34.525,13.934 28.216,11.347 22.625,7.818 19.836,6.055 17.221,4.061 14.894,1.848 13.734,0.741 12.644,-0.421 11.655,-1.624 11.162,-2.223 10.695,-2.836 10.267,-3.444 9.873,-4.006 9.39,-4.775 9.25,-5.074 8.035,-7.73 4.898,-8.896 2.241,-7.68 c -2.655,1.217 -3.818,4.355 -2.603,7.011 0.083,0.177 0.173,0.348 0.266,0.512 z" />
          </g>
          <g
             transform="translate(398.8379,408.3535)"
             id="g50">
            <path
               inkscape:connector-curvature="0"
               id="path52"
               style="fill:#0cc7d3;fill-opacity:1;fill-rule:nonzero;stroke:none"
               d="m 0,0 c -2.663,-1.85 -5.157,-2.978 -7.837,-4.093 -2.651,-1.069 -5.351,-1.938 -8.078,-2.644 -5.467,-1.412 -10.993,-2.217 -16.578,-2.52 -5.576,-0.25 -11.102,0.064 -16.576,0.616 -5.482,0.565 -10.919,1.365 -16.304,2.431 5.449,-0.64 10.917,-1.007 16.382,-1.138 5.46,-0.118 10.925,0.008 16.275,0.671 5.327,0.712 10.628,1.951 15.661,3.7 2.519,0.877 4.978,1.899 7.326,3.08 2.296,1.158 4.703,2.577 6.43,4.012 l 0.104,0.087 C -2.073,5.135 -0.408,4.981 0.524,3.859 1.46,2.737 1.306,1.071 0.186,0.139 0.122,0.09 0.062,0.042 0,0" />
          </g>
        </g>
      </g>
    </g>
  </g>
</svg>
